<svg preserveAspectRatio="none" width="100%" height="100%" overflow="visible" style="display: block;" viewBox="0 0 496.839 188.618" fill="none" xmlns="http://www.w3.org/2000/svg">
<g id="Glue AI Logo">
<g id="glue">
<path d="M188 188.618C173 188.618 159.6 185.418 148 178.818L154.2 156.618C163.8 162.018 173.2 165.818 186 165.818C204.2 165.818 213.4 155.818 213.4 144.218V134.418H213C206 141.618 196.2 145.618 184.6 145.618C157.8 145.618 138 126.018 138 97.6175C138 68.8175 157.2 48.2175 183.2 48.2175C194 48.2175 204.6 52.0175 212.6 59.8175H213V49.6175H239.2V136.218C239.2 166.818 225.8 188.618 188 188.618ZM189.4 122.018C203.8 122.018 214 111.418 214 96.6175C214 81.8175 203.4 71.8175 189.4 71.8175C174.8 71.8175 164.6 82.0175 164.6 96.8175C164.6 112.218 175.4 122.018 189.4 122.018Z" fill="var(--fill-0, #032B42)"/>
<path d="M255.312 147.418V0.217529H281.512V147.418H255.312Z" fill="var(--fill-0, #032B42)"/>
<path d="M333 149.218C311.8 149.218 297 138.418 297 108.618V49.6175H323V101.818C323 119.618 328.4 125.618 340.6 125.618C352 125.618 362.2 116.018 362.2 97.2175V49.6175H388.6V147.418H362.2V135.818L361.8 135.618C354.4 144.618 344 149.218 333 149.218Z" fill="var(--fill-0, #032B42)"/>
<path d="M496.839 97.6175C496.839 100.818 496.439 105.418 496.239 107.018H427.639C430.839 118.818 440.239 125.818 453.439 125.818C464.439 125.818 472.039 121.218 477.239 114.818L494.239 130.618C486.039 141.218 473.439 149.218 451.639 149.218C421.639 149.218 400.439 129.018 400.439 98.4175C400.439 68.6175 421.039 48.2175 450.039 48.2175C477.639 48.2175 496.839 69.0175 496.839 97.6175ZM449.839 71.0175C439.239 71.0175 430.839 77.0175 427.839 88.2175H470.839C468.239 77.8175 461.239 71.0175 449.839 71.0175Z" fill="var(--fill-0, #032B42)"/>
</g>
<path id="Drop" fill-rule="evenodd" clip-rule="evenodd" d="M57 150C88.4802 150 114 123.559 114 93.0377C114 72.2918 102.893 59.0133 88.7866 42.1489C79.588 31.1517 69.1139 18.6298 59.6124 1.5182C58.4884 -0.506066 55.5116 -0.506066 54.3876 1.5182C44.8861 18.6298 34.412 31.1517 25.2134 42.1489C11.1069 59.0133 0 72.2918 0 93.0377C0 123.559 25.5198 150 57 150ZM88.5942 104.922C91.6266 104.174 94.5793 106.83 93.2753 109.667C86.9679 123.385 73.0971 132.911 57 132.911C34.9638 132.911 17.1 115.059 17.1 93.0377C17.1 84.6537 19.6893 76.8741 24.1123 70.4538C25.885 67.8808 29.6858 69.0574 30.5971 72.0456C36.6489 91.8908 55.1122 106.329 76.95 106.329C80.9641 106.329 84.8642 105.841 88.5942 104.922Z" fill="url(#paint0_linear_476_37410)"/>
</g>
<defs>
<linearGradient id="paint0_linear_476_37410" x1="36.7577" y1="-15.2998" x2="64.6482" y2="171.646" gradientUnits="userSpaceOnUse">
<stop stop-color="#FCE153"/>
<stop offset="0.4" stop-color="#FE9446"/>
<stop offset="1" stop-color="#B32DF6"/>
</linearGradient>
</defs>
</svg>
