<svg preserveAspectRatio="none" width="100%" height="100%" overflow="visible" style="display: block;" viewBox="0 0 14.8333 16.5" fill="none" xmlns="http://www.w3.org/2000/svg">
<path id="Vector" d="M13.8845 4.5001C14.0145 4.72788 14.0831 4.98629 14.0833 5.24938V11.2506C14.0831 11.5137 14.0145 11.7721 13.8845 11.9999C13.7545 12.2277 13.5676 12.4168 13.3426 12.5484L8.15741 15.549C7.93219 15.6807 7.67672 15.75 7.41667 15.75M13.8845 4.5001C13.7545 4.27232 13.5676 4.08317 13.3426 3.95162L8.15741 0.951003C7.93219 0.819324 7.67672 0.75 7.41667 0.75C7.15661 0.75 6.90114 0.819324 6.67593 0.951003L1.49074 3.95162C1.26575 4.08317 1.07887 4.27232 0.948861 4.5001M13.8845 4.5001L7.41667 8.25M0.948861 4.5001C0.818847 4.72788 0.750267 4.98629 0.75 5.24938V11.2506C0.750267 11.5137 0.818847 11.7721 0.948861 11.9999C1.07887 12.2277 1.26575 12.4168 1.49074 12.5484L6.67593 15.549C6.90114 15.6807 7.15661 15.75 7.41667 15.75M0.948861 4.5001L7.41667 8.25M7.41667 15.75V8.25" stroke="var(--stroke-0, #9FA3A8)" stroke-width="1.5" stroke-linecap="round" stroke-linejoin="round"/>
</svg>
